<svg width="800" height="800" viewBox="0 0 800 800" fill="none" xmlns="http://www.w3.org/2000/svg">
<path d="M92.7808 456.524H518.533V524.257H92.7808V456.524Z" fill="#5B5E5E"/>
<path d="M194.623 472.332C214.459 472.332 227.522 494.587 223.41 521.923C219.297 549.258 199.945 571.513 180.109 571.513H148.661C147.451 565.223 150.354 529.422 151.322 521.923C155.192 494.587 174.545 472.332 194.623 472.332Z" fill="#2A2B2A"/>
<path d="M169.706 472.332C189.542 472.332 207.444 494.587 209.863 521.923C212.04 549.258 197.767 571.513 177.689 571.513H146.242C143.581 565.223 138.259 529.422 137.775 521.923C135.356 494.587 149.628 472.332 169.706 472.332Z" fill="#5B5E5E"/>
<path d="M106.538 527.024C102.338 499.825 114.347 475.395 133.36 472.459C152.374 469.523 171.192 489.193 175.392 516.393C179.591 543.592 167.583 568.022 148.569 570.958C129.556 573.894 110.738 554.224 106.538 527.024Z" fill="#2A2B2A"/>
<path d="M118.97 525.105C116.3 507.808 123.982 492.265 136.129 490.39C148.277 488.514 160.289 501.016 162.96 518.313C165.631 535.61 157.948 551.152 145.801 553.028C133.654 554.903 121.641 542.402 118.97 525.105Z" fill="#8B9EFF"/>
<path d="M523.613 472.332C543.449 472.332 556.512 494.588 552.4 521.923C548.287 549.258 528.935 571.513 509.099 571.513H477.651C476.442 565.224 479.344 529.422 480.312 521.923C484.183 494.588 503.535 472.332 523.613 472.332Z" fill="#2A2B2A"/>
<path d="M498.697 472.332C518.533 472.332 536.434 494.588 538.853 521.923C541.031 549.258 526.758 571.513 506.68 571.513H475.232C472.571 565.224 467.25 529.422 466.766 521.923C464.347 494.588 478.619 472.332 498.697 472.332Z" fill="#5B5E5E"/>
<path d="M435.53 527.022C431.331 499.822 443.339 475.392 462.353 472.457C481.366 469.521 500.184 489.191 504.384 516.39C508.584 543.59 496.575 568.02 477.561 570.955C458.548 573.891 439.73 554.221 435.53 527.022Z" fill="#2A2B2A"/>
<path d="M447.962 525.102C445.291 507.805 452.974 492.263 465.121 490.387C477.268 488.511 489.281 501.013 491.952 518.31C494.623 535.607 486.94 551.149 474.793 553.025C462.645 554.9 450.633 542.399 447.962 525.102Z" fill="#8B9EFF"/>
<path d="M365.407 472.332C388.146 472.332 406.531 494.587 406.773 521.923C406.773 549.258 388.388 571.513 365.407 571.513H329.363C326.944 565.223 324.283 529.422 324.283 521.923C324.042 494.587 342.668 472.332 365.407 472.332Z" fill="#5B5E5E"/>
<path d="M324.768 472.332C346.781 472.332 366.375 494.587 368.795 521.923C371.214 549.258 355.49 571.513 333.476 571.513C311.463 571.513 291.869 549.258 289.45 521.923C287.031 494.587 302.755 472.332 324.768 472.332Z" fill="#2A2B2A"/>
<path d="M687.624 472.332C709.638 472.332 729.232 494.587 731.651 521.923C734.07 549.258 718.346 571.513 696.333 571.513H661.74C658.838 565.223 653.032 529.422 652.306 521.923C649.887 494.587 665.611 472.332 687.624 472.332Z" fill="#5B5E5E"/>
<path d="M653.758 472.332C675.772 472.332 695.366 494.587 697.785 521.923C700.204 549.258 684.48 571.513 662.467 571.513C640.453 571.513 620.859 549.258 618.44 521.923C616.021 494.587 631.745 472.332 653.758 472.332Z" fill="#2A2B2A"/>
<path d="M14.1615 384.037L130.276 284.856H512.485L648.678 374.361L789.95 404.115L794.788 421.048L773.742 524.342H516.839L498.213 465.075H437.737L420.562 524.342H186.639L169.222 467.494H111.165L93.5061 524.342H21.4187L4.48536 420.323L14.1615 384.037Z" fill="#526EFA"/>
<path d="M21.419 524.342L15.8551 490.475L394.194 368.313L418.385 373.151H440.156L561.108 402.18L551.432 423.951L543.449 524.342H516.84L498.213 465.075H437.737L420.562 524.342H186.64L169.223 467.494H111.166L93.5064 524.342H21.419Z" fill="#8B9EFF"/>
<path d="M267.436 373.151H422.255L356.941 293.323H284.369L267.436 373.151Z" fill="#0D2241"/>
<path d="M257.76 373.151H100.522L160.998 293.323H277.112L257.76 373.151Z" fill="#0D2241"/>
<path d="M627.874 365.894H444.994L381.131 293.323H519.017L627.874 365.894Z" fill="#0D2241"/>
<mask id="mask0_206_546" style="mask-type:luminance" maskUnits="userSpaceOnUse" x="371" y="293" width="244" height="73">
<path d="M371.939 293.323H509.825L614.086 365.894H442.334L371.939 293.323Z" fill="white"/>
</mask>
<g mask="url(#mask0_206_546)">
<path d="M367.585 281.228L532.08 370.732H549.981L394.437 283.647L367.585 281.228Z" fill="#484A71"/>
</g>
<mask id="mask1_206_546" style="mask-type:luminance" maskUnits="userSpaceOnUse" x="376" y="293" width="239" height="73">
<path d="M376.777 293.323H514.663L614.086 365.894H442.334L376.777 293.323Z" fill="white"/>
</mask>
<g mask="url(#mask1_206_546)">
<path d="M586.267 369.039L425.159 280.018L389.84 283.163L571.995 385.247L586.267 369.039Z" fill="#313155"/>
</g>
<path d="M130.518 298.161L54.3176 349.686L114.794 298.161H130.518Z" fill="#0D2241"/>
<mask id="mask2_206_546" style="mask-type:luminance" maskUnits="userSpaceOnUse" x="4" y="284" width="791" height="241">
<path d="M14.1615 384.037L130.276 284.856H512.485L648.678 374.361L789.95 404.115L794.788 421.048L773.742 524.342H516.839L498.213 465.075H437.737L420.562 524.342H186.639L169.222 467.494H111.165L93.5061 524.342H21.4187L4.48536 420.323L14.1615 384.037Z" fill="white"/>
</mask>
<g mask="url(#mask2_206_546)">
<path d="M732.861 448.142H611.908L604.651 419.113H744.956L732.861 448.142Z" fill="#2A2B2A"/>
</g>
<mask id="mask3_206_546" style="mask-type:luminance" maskUnits="userSpaceOnUse" x="4" y="284" width="791" height="241">
<path d="M14.1615 384.037L130.276 284.856H512.485L648.678 374.361L789.95 404.115L794.788 421.048L773.742 524.342H516.839L498.213 465.075H437.737L420.562 524.342H186.639L169.222 467.494H111.165L93.5061 524.342H21.4187L4.48536 420.323L14.1615 384.037Z" fill="white"/>
</mask>
<g mask="url(#mask3_206_546)">
<path d="M43.4321 407.018H-1.07841L0.615105 419.113H40.7712L43.4321 407.018Z" fill="#FFEDCC"/>
</g>
<mask id="mask4_206_546" style="mask-type:luminance" maskUnits="userSpaceOnUse" x="4" y="284" width="791" height="241">
<path d="M14.1615 384.037L130.276 284.856H512.485L648.678 374.361L789.95 404.115L794.788 421.048L773.742 524.342H516.839L498.213 465.075H437.737L420.562 524.342H186.639L169.222 467.494H111.165L93.5061 524.342H21.4187L4.48536 420.323L14.1615 384.037Z" fill="white"/>
</mask>
<g mask="url(#mask4_206_546)">
<path d="M41.0127 419.113H-7.85195L-3.01385 452.98H33.7556L41.0127 419.113Z" fill="#AD2024"/>
</g>
<mask id="mask5_206_546" style="mask-type:luminance" maskUnits="userSpaceOnUse" x="4" y="284" width="791" height="241">
<path d="M14.1615 384.037L130.276 284.856H512.485L648.678 374.361L789.95 404.115L794.788 421.048L773.742 524.342H516.839L498.213 465.075H437.737L420.562 524.342H186.639L169.222 467.494H111.165L93.5061 524.342H21.4187L4.48536 420.323L14.1615 384.037Z" fill="white"/>
</mask>
<g mask="url(#mask5_206_546)">
<path d="M597.394 452.98H505.47L503.051 419.113H604.651L597.394 452.98Z" fill="#FFEDCC"/>
</g>
<mask id="mask6_206_546" style="mask-type:luminance" maskUnits="userSpaceOnUse" x="4" y="284" width="791" height="241">
<path d="M14.1615 384.037L130.276 284.856H512.485L648.678 374.361L789.95 404.115L794.788 421.048L773.742 524.342H516.839L498.213 465.075H437.737L420.562 524.342H186.639L169.222 467.494H111.165L93.5061 524.342H21.4187L4.48536 420.323L14.1615 384.037Z" fill="white"/>
</mask>
<g mask="url(#mask6_206_546)">
<path d="M742.537 452.98L730.442 448.142L744.956 419.113L742.537 452.98Z" fill="#EE9B74"/>
</g>
<mask id="mask7_206_546" style="mask-type:luminance" maskUnits="userSpaceOnUse" x="4" y="284" width="791" height="241">
<path d="M14.1615 384.037L130.276 284.856H512.485L648.678 374.361L789.95 404.115L794.788 421.048L773.742 524.342H516.839L498.213 465.075H437.737L420.562 524.342H186.639L169.222 467.494H111.165L93.5061 524.342H21.4187L4.48536 420.323L14.1615 384.037Z" fill="white"/>
</mask>
<g mask="url(#mask7_206_546)">
<path d="M597.394 452.98L611.908 448.142L604.651 419.113L597.394 452.98Z" fill="#EE9B74"/>
</g>
<mask id="mask8_206_546" style="mask-type:luminance" maskUnits="userSpaceOnUse" x="4" y="284" width="791" height="241">
<path d="M14.1615 384.037L130.276 284.856H512.485L648.678 374.361L789.95 404.115L794.788 421.048L773.742 524.342H516.839L498.213 465.075H437.737L420.562 524.342H186.639L169.222 467.494H111.165L93.5061 524.342H21.4187L4.48536 420.323L14.1615 384.037Z" fill="white"/>
</mask>
<g mask="url(#mask8_206_546)">
<path d="M834.461 452.98H742.537L744.956 419.113H841.718L834.461 452.98Z" fill="#FFEDCC"/>
</g>
<mask id="mask9_206_546" style="mask-type:luminance" maskUnits="userSpaceOnUse" x="4" y="284" width="791" height="241">
<path d="M14.1616 384.037L130.276 284.856H512.485L648.678 374.361L789.95 404.115L794.788 421.048L773.742 524.342H516.839L498.213 465.075H437.737L420.562 524.342H186.639L169.222 467.494H111.165L93.5061 524.342H21.4187L4.48535 420.323L14.1616 384.037Z" fill="white"/>
</mask>
<g mask="url(#mask9_206_546)">
<path d="M616.746 427.822H730.441L726.087 438.465H619.407L616.746 427.822Z" fill="#5B5E5E"/>
</g>
<path d="M379.68 373.151L391.775 344.123L365.165 336.865L340.975 344.123C340.975 344.123 340.975 363.475 348.232 363.475H374.842L372.423 373.151H379.68Z" fill="#526EFA"/>
<path d="M384.518 363.475H374.842L384.276 342.429L391.775 344.123L384.518 363.475Z" fill="#C0BDBA"/>
</svg>
